<svg height="512" viewBox="0 0 28 28" width="512" xmlns="http://www.w3.org/2000/svg" xmlns:xlink="http://www.w3.org/1999/xlink"><linearGradient id="Orange_Yellow" gradientUnits="userSpaceOnUse" x1="-8.787" x2="26.863" y1="27.349" y2="-5.399"><stop offset="0" stop-color="#fff33b"/><stop offset=".04" stop-color="#fee72e"/><stop offset=".117" stop-color="#fed51b"/><stop offset=".196" stop-color="#fdca10"/><stop offset=".281" stop-color="#fdc70c"/><stop offset=".669" stop-color="#f3903f"/><stop offset=".888" stop-color="#ed683c"/><stop offset="1" stop-color="#e93e3a"/></linearGradient><linearGradient id="Orange_Yellow-2" x1="-5.009" x2="30.641" xlink:href="#Orange_Yellow" y1="31.462" y2="-1.286"/><g id="Layer_2" data-name="Layer 2"><path d="m6.876 16.773a1 1 0 0 0 .734-1.209 6.586 6.586 0 0 1 -.179-1.875 6.51 6.51 0 0 1 1.551-3.94 1 1 0 1 0 -1.524-1.295 8.586 8.586 0 0 0 -1.79 7.585 1 1 0 0 0 .97.763.969.969 0 0 0 .238-.029z" fill="url(#Orange_Yellow)"/><path d="m26.247 2.859c-1.3-1.429-3.8-1.341-7.239.234a12 12 0 0 0 -16.339 14.863c-1.892 3.272-2.216 5.757-.916 7.185a3.38 3.38 0 0 0 2.642 1.013 11.027 11.027 0 0 0 4.34-1.125c.084-.037.172-.083.257-.122a11.992 11.992 0 0 0 4.441 1.079c.194.009.388.014.581.014a12 12 0 0 0 11.322-15.939c1.732-2.979 2.323-5.649.911-7.202zm-1.478 1.346c.477.525.308 1.816-.512 3.566a12.061 12.061 0 0 0 -3.094-3.4c2.047-.728 3.215-.594 3.606-.166zm-10.775-.205c.159 0 .319 0 .479.012a9.99 9.99 0 0 1 8.627 5.844 36.921 36.921 0 0 1 -6.284 7.244 37.491 37.491 0 0 1 -7.791 5.576 10 10 0 0 1 4.969-18.676zm-10.762 19.8c-.388-.426-.413-1.6.507-3.572a12.07 12.07 0 0 0 3.1 3.409c-2.062.73-3.225.576-3.607.163zm20.756-9.322a9.983 9.983 0 0 1 -12.6 9.174 41.87 41.87 0 0 0 6.778-5.072 42.776 42.776 0 0 0 5.691-6.259 10.053 10.053 0 0 1 .131 2.152z" fill="url(#Orange_Yellow-2)"/></g></svg>